<svg xmlns="http://www.w3.org/2000/svg" viewBox="11.805 11.81 48.38 48.38">
  <path fill="#009eff" d="M57.275,44.66c.01-.95-.588-1.788-1.486-2.086l-5.964-1.988,5.914-1.773c.908-.279,1.525-1.105,1.535-2.054.01-.949-.588-1.788-1.486-2.086l-12.415-4.138,5.06-5.06-3.142-3.142-7.07,7.07V12.053h-4.444v17.35l-7.07-7.07-3.142,3.142,5.06,5.06-12.411,4.137c-.901.299-1.499,1.137-1.489,2.086.01.949.626,1.775,1.548,2.059l5.901,1.769-5.96,1.987c-.901.299-1.499,1.137-1.489,2.086s.626,1.775,1.548,2.059l5.901,1.769-5.96,1.987c-.901.299-1.499,1.137-1.489,2.086s.626,1.775,1.548,2.059l15.898,4.765c1.253.375,2.541.563,3.829.563s2.576-.188,3.827-.563l15.912-4.769c.908-.28,1.525-1.105,1.535-2.054.01-.95-.588-1.788-1.486-2.086l-5.964-1.988,5.914-1.773c.908-.28,1.525-1.105,1.535-2.054ZM31.748,33.658l.976.976c.875.875,2.038,1.357,3.276,1.357s2.401-.482,3.275-1.357l.976-.976,8.962,2.987-10.52,3.153c-1.762.53-3.625.53-5.387,0l-10.519-3.153,8.962-2.987ZM32.171,43.582c1.253.375,2.541.563,3.829.563s2.576-.188,3.827-.563l3.419-1.025,5.966,1.988-10.52,3.153c-1.762.53-3.625.529-5.387,0l-10.519-3.153,5.937-1.979-.007-.02,3.454,1.035ZM49.212,52.446l-10.52,3.153c-1.762.529-3.625.529-5.387,0l-10.519-3.153,5.937-1.979-.007-.02,3.454,1.035c1.253.375,2.541.563,3.829.563s2.576-.188,3.827-.563l3.419-1.025,5.966,1.988Z"/>
</svg>
