<svg xmlns="http://www.w3.org/2000/svg" width="72" height="72" viewBox="0 0 72 72">
  <path fill="#ffffff" d="M60.729,36.795c.025-2.456-1.523-4.626-3.848-5.399l-7.112-2.37,3.55-3.55-8.027-8.027-3.616,3.615v-12.464h-11.353v12.464l-3.615-3.615-8.028,8.027,3.55,3.55-7.104,2.368c-2.332.774-3.881,2.945-3.855,5.402.016,1.495.615,2.871,1.618,3.886-1.029,1.042-1.634,2.472-1.618,4.014.016,1.494.615,2.871,1.618,3.886-1.029,1.042-1.634,2.472-1.618,4.015.026,2.456,1.627,4.596,4.01,5.331l15.898,4.766c1.569.47,3.191.708,4.821.708s3.251-.239,4.819-.708l15.938-4.777c2.349-.724,3.945-2.861,3.972-5.32.016-1.541-.587-2.969-1.613-4.01.997-1.012,1.596-2.391,1.613-3.888v-.002c.016-1.541-.587-2.969-1.613-4.01.997-1.012,1.597-2.391,1.613-3.89Z"/>
  <path fill="#009eff" d="M57.275,44.66c.01-.95-.588-1.788-1.486-2.086l-5.964-1.988,5.914-1.773c.908-.279,1.525-1.105,1.535-2.054.01-.949-.588-1.788-1.486-2.086l-12.415-4.138,5.06-5.06-3.142-3.142-7.07,7.07V12.053h-4.444v17.35l-7.07-7.07-3.142,3.142,5.06,5.06-12.411,4.137c-.901.299-1.499,1.137-1.489,2.086.01.949.626,1.775,1.548,2.059l5.901,1.769-5.96,1.987c-.901.299-1.499,1.137-1.489,2.086s.626,1.775,1.548,2.059l5.901,1.769-5.96,1.987c-.901.299-1.499,1.137-1.489,2.086s.626,1.775,1.548,2.059l15.898,4.765c1.253.375,2.541.563,3.829.563s2.576-.188,3.827-.563l15.912-4.769c.908-.28,1.525-1.105,1.535-2.054.01-.95-.588-1.788-1.486-2.086l-5.964-1.988,5.914-1.773c.908-.28,1.525-1.105,1.535-2.054ZM31.748,33.658l.976.976c.875.875,2.038,1.357,3.276,1.357s2.401-.482,3.275-1.357l.976-.976,8.962,2.987-10.52,3.153c-1.762.53-3.625.53-5.387,0l-10.519-3.153,8.962-2.987ZM32.171,43.582c1.253.375,2.541.563,3.829.563s2.576-.188,3.827-.563l3.419-1.025,5.966,1.988-10.52,3.153c-1.762.53-3.625.529-5.387,0l-10.519-3.153,5.937-1.979-.007-.02,3.454,1.035ZM49.212,52.446l-10.52,3.153c-1.762.529-3.625.529-5.387,0l-10.519-3.153,5.937-1.979-.007-.02,3.454,1.035c1.253.375,2.541.563,3.829.563s2.576-.188,3.827-.563l3.419-1.025,5.966,1.988Z"/>
</svg>
