<svg xmlns="http://www.w3.org/2000/svg" width="620" height="300" viewBox="0 0 620 300">
  <defs>
    <style>.ic-st0{fill:url(#ic-rg0);}.ic-st1{fill:url(#ic-lg);}.ic-st2{fill:url(#ic-rg1);}.ic-st3{fill:url(#ic-rg3);}.ic-st4{fill:url(#ic-rg2);}</style>
    <radialGradient id="ic-rg0" cx="3.037" cy="57.459" fx="3.037" fy="57.459" r="121.444" gradientTransform="translate(73) rotate(-180) scale(1 -1)" gradientUnits="userSpaceOnUse"><stop offset=".008" stop-color="#90ffff"/><stop offset=".079" stop-color="#81f8fa"/><stop offset=".213" stop-color="#5de5ed"/><stop offset=".339" stop-color="#35d2e0"/></radialGradient>
    <radialGradient id="ic-rg1" cx="15.197" cy="42.817" fx="-20.033" fy="36.517" r="122.054" gradientTransform="translate(73) rotate(-180) scale(1 -1)" gradientUnits="userSpaceOnUse"><stop offset=".032" stop-color="#00f3f4"/><stop offset=".447" stop-color="#048ea7"/></radialGradient>
    <radialGradient id="ic-rg2" cx="11.522" cy="28.78" fx="11.522" fy="28.78" r="74.953" gradientTransform="translate(73) rotate(-180) scale(1 -1)" gradientUnits="userSpaceOnUse"><stop offset=".182" stop-color="#348da2"/><stop offset=".833" stop-color="#126176"/></radialGradient>
    <linearGradient id="ic-lg" x1="-23.954" y1="3.056" x2="69.823" y2="19.591" gradientTransform="translate(73) rotate(-180) scale(1 -1)" gradientUnits="userSpaceOnUse"><stop offset=".18" stop-color="#25839a"/><stop offset=".555" stop-color="#265564"/></linearGradient>
    <radialGradient id="ic-rg3" cx="59.232" cy="65.22" fx="59.232" fy="65.22" r="325.339" gradientUnits="userSpaceOnUse"><stop offset="0" stop-color="#d0d0d0"/><stop offset=".637" stop-color="#c1c1c1"/><stop offset=".922" stop-color="#bababa"/></radialGradient>
  </defs>
  <!-- Splash screen. Tagline excluded - to be rendered by app's localization layer below the wordmark. Background is transparent so the host window's background shows through. -->
  <g transform="translate(17, 52) scale(2.722222)">
    <path class="ic-st0" d="M6,54h60v8c0,5.519-4.481,10-10,10H16c-5.519,0-10-4.481-10-10v-8h0Z"/>
    <path class="ic-st2" d="M66,36v18s0,8,0,8c0-4.418-3.582-8-8-8H6v-18h60Z"/>
    <path class="ic-st4" d="M66,18v18s0,8,0,8c0-4.418-3.582-8-8-8H6v-18h60Z"/>
    <path class="ic-st1" d="M16,0h40c5.523,0,10,4.477,10,10v8s0,8,0,8c0-4.418-3.582-8-8-8H6v-8C6,4.477,10.477,0,16,0Z"/>
    <path class="ic-st3" d="M54.25,34.99l-4.385-4.385c-.807-.807-2.116-.807-2.923,0l-5.941,5.941V0h-10v36.547l-5.941-5.941c-.807-.807-2.116-.807-2.923,0l-4.385,4.385c-.807.807-.807,2.116,0,2.923l14.556,14.557c2.04,2.04,5.347,2.04,7.386,0l14.556-14.557c.807-.807.807-2.116,0-2.923Z"/>
  </g>
  <g transform="translate(244.73, 75.88) scale(2.653)">
    <g transform="translate(-72, -14)">
      <path fill="#010101" d="M87.392,25.032c0,3.027-.861,5.345-2.584,6.955s-4.211,2.415-7.464,2.415h-5.207v-18.386h5.772c3.001,0,5.332.792,6.992,2.376s2.49,3.798,2.49,6.64h0ZM83.343,25.133c0-3.949-1.744-5.923-5.231-5.923h-2.075v11.973h1.673c3.756,0,5.634-2.017,5.634-6.049h0ZM95.333,34.653c-2.264,0-4.033-.625-5.307-1.874-1.274-1.25-1.911-3.019-1.911-5.307,0-2.356.589-4.177,1.767-5.464s2.807-1.93,4.886-1.93c1.987,0,3.534.566,4.641,1.698,1.106,1.132,1.66,2.695,1.66,4.69v1.861h-9.067c.042,1.09.365,1.941.968,2.553.604.612,1.45.918,2.541.918.847,0,1.647-.088,2.402-.264.754-.176,1.542-.457,2.364-.843v2.968c-.671.335-1.388.585-2.15.749-.763.164-1.694.245-2.792.245h-.002ZM94.792,22.806c-.813,0-1.451.258-1.912.773-.461.516-.726,1.248-.792,2.195h5.383c-.017-.947-.264-1.679-.742-2.195s-1.124-.773-1.937-.773ZM105.6,34.401l-5.357-14.06h4.012l2.716,8.011c.302,1.014.491,1.974.566,2.88h.076c.042-.805.23-1.765.566-2.88l2.704-8.011h4.012l-5.357,14.06h-3.938ZM127.751,27.346c0,2.289-.604,4.079-1.811,5.37-1.207,1.291-2.889,1.937-5.043,1.937-1.35,0-2.54-.295-3.571-.887-1.031-.591-1.824-1.44-2.377-2.546-.554-1.107-.83-2.398-.83-3.874,0-2.297.599-4.083,1.798-5.357s2.884-1.911,5.056-1.911c1.35,0,2.54.293,3.571.88s1.824,1.43,2.377,2.528c.554,1.099.83,2.385.83,3.861h0ZM118.03,27.346c0,1.392.229,2.444.686,3.157.456.712,1.2,1.069,2.231,1.069,1.023,0,1.759-.354,2.207-1.062.449-.708.673-1.763.673-3.163,0-1.392-.226-2.436-.679-3.131s-1.194-1.044-2.226-1.044c-1.023,0-1.761.346-2.214,1.038-.452.692-.679,1.738-.679,3.138v-.002ZM132.824,34.401h-3.836V14.833h3.836v19.568ZM144.877,34.401l-.516-1.798h-.201c-.411.654-.994,1.159-1.748,1.516-.755.356-1.614.534-2.578.534-1.652,0-2.897-.442-3.735-1.327-.839-.884-1.258-2.157-1.258-3.817v-9.168h3.836v8.212c0,1.014.18,1.775.541,2.282.36.507.935.761,1.723.761,1.073,0,1.849-.358,2.326-1.076.479-.717.717-1.905.717-3.565v-6.615h3.836v14.06h-2.943ZM155.836,31.597c.671,0,1.476-.147,2.414-.44v2.855c-.955.427-2.129.641-3.521.641-1.534,0-2.652-.388-3.352-1.163-.7-.775-1.051-1.939-1.051-3.49v-6.779h-1.836v-1.622l2.113-1.283,1.106-2.968h2.452v2.993h3.937v2.88h-3.937v6.779c0,.545.153.947.459,1.207s.711.39,1.214.39h.002ZM158.997,16.707c0-1.249.696-1.874,2.088-1.874s2.087.625,2.087,1.874c0,.595-.174,1.059-.521,1.39-.348.332-.87.497-1.565.497-1.392,0-2.088-.628-2.088-1.886h-.001ZM162.996,34.401h-3.836v-14.06h3.836v14.06ZM177.865,27.346c0,2.289-.604,4.079-1.811,5.37-1.207,1.291-2.889,1.937-5.043,1.937-1.35,0-2.54-.295-3.571-.887-1.031-.591-1.824-1.44-2.377-2.546-.554-1.107-.83-2.398-.83-3.874,0-2.297.599-4.083,1.798-5.357s2.884-1.911,5.056-1.911c1.35,0,2.54.293,3.571.88s1.824,1.43,2.377,2.528c.554,1.099.83,2.385.83,3.861h0ZM168.145,27.346c0,1.392.229,2.444.686,3.157.456.712,1.2,1.069,2.231,1.069,1.023,0,1.759-.354,2.207-1.062.449-.708.673-1.763.673-3.163,0-1.392-.226-2.436-.679-3.131s-1.194-1.044-2.226-1.044c-1.023,0-1.761.346-2.214,1.038-.452.692-.679,1.738-.679,3.138v-.002ZM192.081,34.401h-3.835v-8.212c0-1.015-.181-1.775-.541-2.283s-.936-.761-1.723-.761c-1.073,0-1.849.358-2.327,1.075s-.717,1.905-.717,3.565v6.615h-3.836v-14.06h2.931l.516,1.798h.214c.428-.679,1.017-1.192,1.767-1.541.75-.348,1.604-.521,2.56-.521,1.635,0,2.875.442,3.723,1.327.847.884,1.27,2.161,1.27,3.829v9.168h-.002ZM203.908,30.226c0,1.442-.501,2.541-1.503,3.295s-2.5,1.132-4.496,1.132c-1.022,0-1.895-.069-2.615-.208-.722-.138-1.396-.341-2.024-.61v-3.169c.712.335,1.515.616,2.408.842.893.227,1.679.34,2.357.34,1.392,0,2.088-.403,2.088-1.208,0-.302-.093-.547-.276-.736-.185-.188-.504-.402-.956-.641-.453-.239-1.057-.518-1.812-.836-1.081-.453-1.876-.872-2.383-1.257s-.876-.828-1.106-1.327-.346-1.113-.346-1.842c0-1.249.484-2.215,1.452-2.898.969-.684,2.341-1.025,4.119-1.025,1.693,0,3.341.369,4.942,1.106l-1.157,2.767c-.704-.302-1.362-.549-1.975-.742s-1.236-.29-1.874-.29c-1.132,0-1.697.306-1.697.918,0,.344.182.642.547.893.364.251,1.163.625,2.396,1.119,1.099.445,1.903.86,2.415,1.245.511.386.889.83,1.132,1.333s.364,1.103.364,1.798h0ZM86.235,36.835v11.896c0,2.096-.633,3.743-1.899,4.942s-3.006,1.799-5.219,1.799-3.926-.604-5.137-1.812-1.817-2.867-1.817-4.979v-11.847h2.138v11.997c0,1.534.419,2.712,1.257,3.534.838.821,2.071,1.232,3.698,1.232,1.551,0,2.746-.413,3.584-1.239.838-.825,1.257-2.01,1.257-3.553v-11.972h2.138v.002ZM98.288,55.221v-8.916c0-1.124-.256-1.962-.768-2.516-.511-.553-1.312-.83-2.402-.83-1.442,0-2.499.39-3.169,1.17-.671.779-1.006,2.066-1.006,3.86v7.231h-2.087v-13.783h1.698l.339,1.887h.101c.428-.68,1.027-1.205,1.798-1.578s1.631-.561,2.578-.561c1.66,0,2.909.401,3.748,1.201.838.801,1.258,2.082,1.258,3.842v8.992h-2.088ZM102.556,37.702c0-.478.118-.828.353-1.05.234-.222.528-.333.88-.333.335,0,.625.113.868.339.243.227.364.575.364,1.043s-.122.82-.364,1.051c-.244.23-.533.346-.868.346-.352,0-.646-.115-.88-.346-.235-.23-.353-.581-.353-1.051h0ZM104.82,55.221h-2.087v-13.783h2.087v13.783ZM115.716,45.588h6.25v8.941c-.973.31-1.962.545-2.968.704s-2.172.239-3.496.239c-2.784,0-4.951-.828-6.502-2.484-1.551-1.655-2.327-3.976-2.327-6.961,0-1.911.384-3.586,1.151-5.023.767-1.438,1.872-2.536,3.313-3.295,1.442-.759,3.132-1.138,5.068-1.138,1.962,0,3.789.36,5.483,1.082l-.83,1.886c-1.66-.704-3.258-1.056-4.792-1.056-2.238,0-3.986.666-5.244,1.999-1.257,1.333-1.886,3.182-1.886,5.546,0,2.482.606,4.364,1.818,5.646,1.211,1.283,2.99,1.925,5.338,1.925,1.274,0,2.52-.146,3.735-.44v-5.659h-4.112v-1.911h.001ZM129.957,55.473c-2.037,0-3.646-.621-4.823-1.861-1.178-1.241-1.767-2.964-1.767-5.169,0-2.222.547-3.986,1.641-5.295,1.095-1.308,2.563-1.962,4.408-1.962,1.728,0,3.094.568,4.1,1.704,1.006,1.137,1.51,2.635,1.51,4.496v1.32h-9.495c.042,1.618.45,2.847,1.226,3.686.775.838,1.868,1.257,3.276,1.257,1.484,0,2.951-.31,4.401-.931v1.861c-.737.319-1.436.547-2.094.686s-1.452.208-2.383.208ZM129.391,42.934c-1.106,0-1.989.361-2.646,1.082-.658.721-1.046,1.719-1.164,2.993h7.206c0-1.316-.293-2.324-.88-3.024s-1.426-1.051-2.516-1.051h0ZM141.104,53.749c.369,0,.726-.026,1.069-.081s.616-.111.817-.17v1.597c-.227.109-.56.199-1,.271s-.836.107-1.188.107c-2.666,0-3.999-1.404-3.999-4.213v-8.2h-1.975v-1.006l1.975-.868.88-2.942h1.208v3.194h3.999v1.622h-3.999v8.111c0,.83.196,1.468.591,1.912.394.444.935.666,1.622.666ZM158.011,36.835v11.896c0,2.096-.633,3.743-1.898,4.942-1.267,1.199-3.006,1.799-5.219,1.799s-3.926-.604-5.138-1.812-1.817-2.867-1.817-4.979v-11.847h2.138v11.997c0,1.534.42,2.712,1.258,3.534.839.821,2.071,1.232,3.697,1.232,1.551,0,2.746-.413,3.584-1.239.839-.825,1.258-2.01,1.258-3.553v-11.972h2.138v.002ZM160.945,55.221v-18.386h2.139v18.386h-2.139Z"/>
    </g>
  </g>
</svg>
